/* XPM */
static char *_520cc630efb4486e229153e5aac05d2wmywQ25PvOTYuj2M[] = {
/* columns rows colors chars-per-pixel */
"32 32 9 1 ",
"  c #120C20",
". c #00744B",
"X c #00935F",
"o c #59B24D",
"O c #F8A770",
"+ c #52698A",
"@ c #859CB6",
"# c #F3D5A9",
"$ c white",
/* pixels */
"XXXXXXXXXXXXXXXXXXXXXXXXXXXXXXXX",
"XXXXXXXXXXXXXXXXXXXXXX.XXXXXXXXX",
"XXXXXXXXXXXXXXXXXXXXX.X.XXXXXXXX",
"XXXXXXXXXXXXXXXXXXXXXX.XXXXXXXXX",
"XXXXXXXXXXXXXXXXXXXXXXXXXXXXXXXX",
"XXXXXXXXXXXXXXXXXXXXXXXXXXXXXXXX",
"XXXXXXXXXXXXX    o  XXXXXXXXXXXX",
"XXXXXXXXXXXX         XXXXXXXXXXX",
"XXXXXXoXXXX     $$$   XXXXXXXXXX",
"XXXXXXoXXX     $$$$$   XXXXXXXXX",
"XXXXXXoX       $ $ $    XXXXXXXX",
"XXXXXXoX        $$$     XXXXXXXX",
"XXXXXXXX        $ $     XXXXXXXX",
"XXXXXXXX                XXXXXXXX",
"XXXXXXXXXXX O####### XXXXXXXXXXX",
"oXXXXXXXXXX O#  ###  XXXXXXXXXXX",
"XoXXXXXXXXX O#  ###  XXXXXXXXXXo",
"oXXXXXXXXXX O####### XXXXXXXXXXX",
"XXXXXXXXXXX O####### XXXXXXXXXXX",
"XXXXXXXXXXX O####### XXXXXXXXXXX",
"XXXXXXXXXXX @@@@@@@@ XXXXXXXXXXX",
"XXXXXXXXXX. ++++++++ XXXXXXXXXXX",
"XXXXXXXXX   ++++++++ XXXXXXXXXXX",
"XXXXXXXXX @@@     @@ XXXXXXXXXXX",
"XXXXXXXXX    XXXX  @ XXXXoXXXXXX",
"XXXXXXXXXXXXXXXXXX   XXoXoXXXXXX",
"XXXXXXXXXXXXXXXXXXXXXXXoXoXXXXXX",
"XXXXXXXXXXXXXXXXXXXXXXXoXXXXXXXX",
"XXXXXXXXXXXXXXXXXXXXXXXXXXXXXXXX",
"XXXXXXXXXXXXXoXXXXXXXXXXXXXXXXXX",
"XXXXXXXXXXXXoXoXXXXXXXXXXXXXXXXX",
"XXXXXXXXXXXXXoXXXXXXXXXXXXXXXXXX"
};
