/* XPM */
static char *d9b393b6e574400086c7b816b4810af5xvIDXRuJAet9Elkb[] = {
/* columns rows colors chars-per-pixel */
"32 32 17 1 ",
"  c #0C041B",
". c #4C1E2C",
"X c #007547",
"o c #973B32",
"O c #A57A4F",
"+ c #E8714A",
"@ c #00945C",
"# c #00B343",
"$ c #FFB100",
"% c #FFA96D",
"& c #FFE944",
"* c #45698C",
"= c #7B9DB8",
"- c #7FD6C3",
"; c #FED6A8",
": c #F5FCFA",
"> c white",
/* pixels */
"@@@@@@@@@@@@@@@@@@@@@@@@@@@@@@@@",
"@@@@@@@@@@@@@@@@@@@@@@X@@@@@@@@@",
"@@@@@@@@@@@@@@@@@@@@@X@X@@@@@@@@",
"@@@@@@@@@@@@@@@@@@@@@@X@@@@@@@@@",
"@@@@@@@@@@@@@@@@@@@@@@@@@@@@@@@@",
"@@@@@@@@@@@@@@@@@@@@@@@@@@@@@@@@",
"@@@@@@@@@@@@@    #  @@@@@@@@@@@@",
"@@@@@@@@@@@@         @@@@@@@@@@@",
"@@@@@@#>@@@     >>>   @@>@@@@@@@",
"@@@@@@#:O+     >>>>>   +>@@@@@@@",
"@@@@@@#-       > > >    >@@@@@@@",
"@@@@@@#&        >>>     &@@@@@@@",
"@@@@@@@>        > >     >@@@@@@@",
"@@@@@@@&                &@@@@@@@",
"@@@@@@@$... %;;;;;;; ...$@@@@@@@",
"#@@@@@@$$$$ %;  ;;;  $$$$@@@@@@@",
"@#@@@@@     %;  ;;;      @@@@@@#",
"#@@@@@@$... %;;;;;;; ...$@@@@@@@",
"@@@@@@@$.oo %;;;;;;; oo.$@@@@@@@",
"@@@@@@@&.oo %;;;;;;; oo.&@@@@@@@",
"@@@@@@@&.oo ======== oo.&@@@@@@@",
"@@@@@@@ &oo ******** oo& @@@@@@@",
"@@@@@@@$    ******** >& $@@@@@@@",
"@@@@@@@@@ ===     == @@@@@@@@@@@",
"@@@@@@@@@    @@@@  = @@@@#@@@@@@",
"@@@@@@@@@@@@@@@@@@   @@#@#@@@@@@",
"@@@@@@@@@@@@@@@@@@@@@@@#@#@@@@@@",
"@@@@@@@@@@@@@@@@@@@@@@@#@@@@@@@@",
"@@@@@@@@@@@@@@@@@@@@@@@@@@@@@@@@",
"@@@@@@@@@@@@@#@@@@@@@@@@@@@@@@@@",
"@@@@@@@@@@@@#@#@@@@@@@@@@@@@@@@@",
"@@@@@@@@@@@@@#@@@@@@@@@@@@@@@@@@"
};
