/* XPM */
static char *_3fc64bc76d54d14c00d166c9cd3ef35iMlbhvQzeDLKMsrN[] = {
/* columns rows colors chars-per-pixel */
"32 32 11 1 ",
"  c #120C20",
". c #44232F",
"X c #00744B",
"o c #843D36",
"O c #CE704D",
"+ c #00935F",
"@ c #59B24D",
"# c #FFAF1E",
"$ c #FFE855",
"% c #BDCCDE",
"& c white",
/* pixels */
"++++++++++++++++++++++++++++++++",
"++++++++++++++++++++++X+++++++++",
"+++++++++++++++++++++X+X++++++++",
"++++++++++++++++++++++X+++++++++",
"++++++++++++++++++++++++++++++++",
"++++++++++++++++++++++++++++++++",
"+++++++++++++++++@++++++++++++++",
"+++++++++++++++++@@+++++++++++++",
"++++++@&+++++++++@@++@++&+++++++",
"++++++@&OOOOOOOOOOOOOOOO&+++++++",
"++++++@&.oooooooooooooo.&+++++++",
"++++++@$.oooooooooooooo.$+++++++",
"+++++++&.oooooooooooooo.&+++++++",
"+++++++$..oooooooooooo..$+++++++",
"+++++++#................#+++++++",
"@++++++########  ########+++++++",
"+@+++++        &&        ++++++@",
"@++++++#...... %% ......#+++++++",
"+++++++#.ooooo.  .ooooo.#+++++++",
"+++++++$.oooooo..oooooo.$+++++++",
"+++++++$.oooooooooooooo.$+++++++",
"+++++++ $oooooooooooooo$ +++++++",
"+++++++# $$&&&&&&&&&$&$ #+++++++",
"++++++++++X+++++++++++++++++++++",
"+++++++++++++++++++++++++@++++++",
"+++++++++++++++++++++++@+@++++++",
"+++++++++++++++++++++++@+@++++++",
"+++++++++++++++++++++++@++++++++",
"++++++++++++++++++++++++++++++++",
"+++++++++++++@++++++++++++++++++",
"++++++++++++@+@+++++++++++++++++",
"+++++++++++++@++++++++++++++++++"
};
