/* XPM */
static char *_2590484bddc4ca1cd7639e60101dcf5vYSNj4GXnNeoPsu0[] = {
/* columns rows colors chars-per-pixel */
"32 32 13 1 ",
"  c #007547",
". c #A84149",
"X c #D0505A",
"o c #F2646F",
"O c #00945C",
"+ c #00B343",
"@ c #BFA310",
"# c #FFD900",
"$ c #FFE855",
"% c #DCA980",
"& c #E0D083",
"* c #FDC499",
"= c #F8E383",
/* pixels */
"OOOOOOOOOOOOOOOOOOOOOOOOOOOOOOOO",
"OOOOOOOOOOOOOOOOOOOOOO OOOOOOOOO",
"OOOOOOOOOOOOOOOOOOOOO O OOOOOOOO",
"OOOOOOOOOOOOOOOOOOOOOO OOOOOOOOO",
"OOOOOOOOOOOOOOOOOOOOOOOOOOOOOOOO",
"OOOOOOOOOOOOOOOOOOOOOOOOOOOOOOOO",
"OOOOOOOOOOOOOOOOO+OOOOOOOOOOOOOO",
"OOOOOOOOOOOOOOOOO++OOOOOOOOOOOOO",
"OOOOOO+OOOOOOOOOO++OO+OOOOOOOOOO",
"OOOOOO+OooOOOOOOOO+ ++OOOOOOOOOO",
"OOOOOO+OoX.OOOOOOO ++ OOOOOOOOOO",
"OOOOOO.oXXX.OOOOOOO  OOOOOOOOOOO",
"OOOOO..XXX...OOOOOOOOOOOOOOOOOOO",
"OOOOOOO....OOOOOOOOOOOOOOOOOOOOO",
"OOOOOOOOO%OOOOOOOOOOOOOOOOOOOOOO",
"+OOOOOOO*%OOOOOOOOOOOOOOOOOOOOOO",
"O+OOOOOO%%OOOOOOOOOOOOOOOOOOOOO+",
"+OOOOOOOOOOOOOOOOOOOOOOO##OOOOOO",
"OOOOOOOOOOOOOOOOOOOOOOO##@&OOOOO",
"OOOOOOOOOOOOOOOOOOOOOO&==@@$OOOO",
"OOOOOOOOOOOOOOOOOOOOOO$==&$$OOOO",
"OOOOOOOOOO OOOOOOOOOOOO$$$$OOOOO",
"OOOOOOOOO O OOOOOOOOOOOOO%OOOOOO",
"OOOOOOOOOO OOOOOOOOOOOOO%%OOOOOO",
"OOOOOOOOOOOOOOOOOOOOOOOOO+OOOOOO",
"OOOOOOOOOOOOOOOOOOOOOOO+O+OOOOOO",
"OOOOOOOOOOOOOOOOOOOOOOO+O+OOOOOO",
"OOOOOOOOOOOOOOOOOOOOOOO+OOOOOOOO",
"OOOOOOOOOOOOOOOOOOOOOOOOOOOOOOOO",
"OOOOOOOOOOOOO+OOOOOOOOOOOOOOOOOO",
"OOOOOOOOOOOO+O+OOOOOOOOOOOOOOOOO",
"OOOOOOOOOOOOO+OOOOOOOOOOOOOOOOOO"
};
