/* XPM */
static char *_d97f18bbcc0436ab3daef06faee13b5o76p53ILernVDXF2[] = {
/* columns rows colors chars-per-pixel */
"32 32 14 1 ",
"  c #120C20",
". c #44232F",
"X c #00744B",
"o c #843D36",
"O c #00C83F",
"+ c #00935F",
"@ c #59B24D",
"# c #FFAF1E",
"$ c #FFE855",
"% c #004D8C",
"& c #00E9F6",
"* c #859CB6",
"= c #BDCCDE",
"- c white",
/* pixels */
"++++++++++++++++++++++++++++++++",
"++++++++++++++++++++++X+++++++++",
"+++++++++++++++++++++X+X++++++++",
"++++++++++++++++++++++X+++++++++",
"++++++++++++++++++++++++++++++++",
"+++++++++++++++  +++++++++++++++",
"++++++++++++++ =* ++++++++++++++",
"+++++++##$#$$$$$$$$$$$#$$+++++++",
"++++++@#oooooooooooooooo#+++++++",
"++++++@#................#+++++++",
"++++++@#................#+++++++",
"++++++@#................#+++++++",
"+++++++#oo............oo#+++++++",
"+++++++#oooooooooooooooo#+++++++",
"+++++++##################+++++++",
"@++++++#oooooooooooooooo#+++++++",
"+@+++++#oo....-$O-$...oo$++++++@",
"@++++++#...--&$$$$$-#...$+++++++",
"+++++++# #%###-######O  $+++++++",
"+++++++$$$$$$$$$$$$$$$$$$+++++++",
"+++++++$................$+++++++",
"+++++++$.oooooooooooooo.$+++++++",
"+++++++$.oooooooooooooo.$+++++++",
"+++++++$.oooooooooooooo.$+++++++",
"+++++++ $oooooooooooooo$ @++++++",
"+++++++# $$$$$$$$$$$$$$ #@++++++",
"+++++++++++++++++++++++@+@++++++",
"+++++++++++++++++++++++@++++++++",
"++++++++++++++++++++++++++++++++",
"+++++++++++++@++++++++++++++++++",
"++++++++++++@+@+++++++++++++++++",
"+++++++++++++@++++++++++++++++++"
};
